<svg version="1.1" xmlns="http://www.w3.org/2000/svg" xmlns:xlink="http://www.w3.org/1999/xlink" width="1330" height="925.75"><defs/><g><rect fill="#0b1220" stroke="none" x="0" y="0" width="1330" height="925.75"/><g transform="translate(438.3872697726179,35.98382843331595) scale(1.6300755849473592,1.6300755849473592)"><path fill="none" stroke="rgb(108,117,125)" paint-order="fill stroke markers" d=" M 136.1651837899222 190.2686349888856 L 122.65265738603135 189.17836280318758" stroke-opacity="1" stroke-linejoin="round" stroke-miterlimit="10" stroke-width="2"/><path fill="rgb(108,117,125)" stroke="none" paint-order="stroke fill markers" d=" M 127.68727993576368 185.22044974429824 L 118.66561462688128 188.85666412941194 L 126.98758532030168 193.89226774544963 Z" fill-opacity="1"/><g transform="translate(128.41215989818926,179.64307422759265) rotate(4.61297610059322,0,0)"><text fill="rgb(73,80,87)" stroke="none" font-family="Helvetica Neue, Helvetica, sans-serif" font-size="10px" font-style="normal" font-weight="normal" text-decoration="normal" x="0" y="5" text-anchor="middle" dominant-baseline="text-after-edge" fill-opacity="1">knows</text><g transform="rotate(-4.61297610059322,0,0) translate(-128.41215989818926,-179.64307422759265)"><path fill="none" stroke="rgb(108,117,125)" paint-order="fill stroke markers" d=" M 136.1651837899222 198.06039302741914 L 43.558783605642105 224.1495898727721" stroke-opacity="1" stroke-linejoin="round" stroke-miterlimit="10" stroke-width="2"/><path fill="rgb(108,117,125)" stroke="none" paint-order="stroke fill markers" d=" M 46.903114979690685 218.68809303943473 L 39.70865316413807 225.23425368400765 L 49.262258769127975 227.06212674970598 Z" fill-opacity="1"/><g transform="translate(88.89945108740615,201.37615740290448) rotate(-15.733659613511032,0,0)"><text fill="rgb(73,80,87)" stroke="none" font-family="Helvetica Neue, Helvetica, sans-serif" font-size="10px" font-style="normal" font-weight="normal" text-decoration="normal" x="0" y="5" text-anchor="middle" dominant-baseline="text-after-edge" fill-opacity="1">knows</text><g transform="rotate(15.733659613511032,0,0) translate(-88.89945108740615,-201.37615740290448)"><path fill="none" stroke="rgb(108,117,125)" paint-order="fill stroke markers" d=" M 91.7097054990008 201.32362945409778 L 23.932202828324023 320.5915876644583" stroke-opacity="1" stroke-linejoin="round" stroke-miterlimit="10" stroke-width="2"/><path fill="rgb(108,117,125)" stroke="none" paint-order="stroke fill markers" d=" M 22.472370140323267 314.3560934159609 L 21.955909127880474 324.0692683872371 L 30.036325712367116 318.6545322144256 Z" fill-opacity="1"/><g transform="translate(57.32688073855152,251.82702873997272) rotate(-60.39133051604674,0,0)"><text fill="rgb(73,80,87)" stroke="none" font-family="Helvetica Neue, Helvetica, sans-serif" font-size="10px" font-style="normal" font-weight="normal" text-decoration="normal" x="0" y="5" text-anchor="middle" dominant-baseline="text-after-edge" fill-opacity="1">knows</text><g transform="rotate(60.39133051604674,0,0) translate(-57.32688073855152,-251.82702873997272)"><path fill="none" stroke="rgb(108,117,125)" paint-order="fill stroke markers" d=" M 155.02809500912852 206.00338475305688 L 130.8625307972442 334.29557629033206" stroke-opacity="1" stroke-linejoin="round" stroke-miterlimit="10" stroke-width="2"/><path fill="rgb(108,117,125)" stroke="none" paint-order="stroke fill markers" d=" M 127.45771547765334 328.87158028743164 L 130.1220979428179 338.22644886370375 L 136.00736332473687 330.4820217458088 Z" fill-opacity="1"/><g transform="translate(142.76020468957978,261.13219866503744) rotate(-79.33255844977477,0,0)"><text fill="rgb(73,80,87)" stroke="none" font-family="Helvetica Neue, Helvetica, sans-serif" font-size="10px" font-style="normal" font-weight="normal" text-decoration="normal" x="0" y="5" text-anchor="middle" dominant-baseline="text-after-edge" fill-opacity="1">worksAt</text><g transform="rotate(79.33255844977477,0,0) translate(-142.76020468957978,-261.13219866503744)"><path fill="none" stroke="rgb(108,117,125)" paint-order="fill stroke markers" d=" M 102.02743915411743 201.32362945409778 L 124.45777999928828 334.28218256044084" stroke-opacity="1" stroke-linejoin="round" stroke-miterlimit="10" stroke-width="2"/><path fill="rgb(108,117,125)" stroke="none" paint-order="stroke fill markers" d=" M 119.38653994777756 330.37129719521295 L 125.12318463478809 338.22644886370375 L 127.96531915737441 328.92404211300084 Z" fill-opacity="1"/><g transform="translate(113.4089607355778,258.78897258308507) rotate(80.42426497045258,0,0)"><text fill="rgb(73,80,87)" stroke="none" font-family="Helvetica Neue, Helvetica, sans-serif" font-size="10px" font-style="normal" font-weight="normal" text-decoration="normal" x="0" y="5" text-anchor="middle" dominant-baseline="text-after-edge" fill-opacity="1">worksAt</text><g transform="rotate(-80.42426497045258,0,0) translate(-113.4089607355778,-258.78897258308507)"><path fill="none" stroke="rgb(108,117,125)" paint-order="fill stroke markers" d=" M 30.00454739243615 245.57298327345654 L 111.99050980944817 335.2739024401533" stroke-opacity="1" stroke-linejoin="round" stroke-miterlimit="10" stroke-width="2"/><path fill="rgb(108,117,125)" stroke="none" paint-order="stroke fill markers" d=" M 105.60875455281042 334.7393934651338 L 114.68911493372615 338.22644886370375 L 112.0305430240327 328.8699273198292 Z" fill-opacity="1"/><g transform="translate(71.67217988201166,281.16157946269254) rotate(47.572923970079344,0,0)"><text fill="rgb(73,80,87)" stroke="none" font-family="Helvetica Neue, Helvetica, sans-serif" font-size="10px" font-style="normal" font-weight="normal" text-decoration="normal" x="0" y="5" text-anchor="middle" dominant-baseline="text-after-edge" fill-opacity="1">worksAt</text><g transform="rotate(-47.572923970079344,0,0) translate(-71.67217988201166,-281.16157946269254)"><path fill="none" stroke="rgb(108,117,125)" paint-order="fill stroke markers" d=" M 163.63069000628795 339.9902623225998 L 236.79340273711722 315.2229158536039" stroke-opacity="1" stroke-linejoin="round" stroke-miterlimit="10" stroke-width="2"/><path fill="rgb(108,117,125)" stroke="none" paint-order="stroke fill markers" d=" M 233.73639724326762 320.85027912698274 L 240.5821945503733 313.9403182566142 L 230.94674746981502 312.6096569331508 Z" fill-opacity="1"/><g transform="translate(201.1592443250166,317.28593968885446) rotate(-18.702202336984495,0,0)"><text fill="rgb(73,80,87)" stroke="none" font-family="Helvetica Neue, Helvetica, sans-serif" font-size="10px" font-style="normal" font-weight="normal" text-decoration="normal" x="0" y="5" text-anchor="middle" dominant-baseline="text-after-edge" fill-opacity="1">owns</text><g transform="rotate(18.702202336984495,0,0) translate(-201.1592443250166,-317.28593968885446)"><path fill="none" stroke="rgb(108,117,125)" paint-order="fill stroke markers" d=" M 118.9295234467444 366.22644886370375 L 51.934584376841855 475.85542589577574" stroke-opacity="1" stroke-linejoin="round" stroke-miterlimit="10" stroke-width="2"/><path fill="rgb(108,117,125)" stroke="none" paint-order="stroke fill markers" d=" M 50.67360063959574 469.57669831652845 L 49.84879673603294 479.26856080630137 L 58.097169069988965 474.1132864352878 Z" fill-opacity="1"/><g transform="translate(84.9106070015909,411.89422110737115) rotate(-58.57064249207352,0,0)"><text fill="rgb(73,80,87)" stroke="none" font-family="Helvetica Neue, Helvetica, sans-serif" font-size="10px" font-style="normal" font-weight="normal" text-decoration="normal" x="0" y="5" text-anchor="middle" dominant-baseline="text-after-edge" fill-opacity="1">owns</text><g transform="rotate(58.57064249207352,0,0) translate(-84.9106070015909,-411.89422110737115)"><path fill="none" stroke="rgb(108,117,125)" paint-order="fill stroke markers" d=" M 170.64846945424426 206.00338475305688 L 247.83632750479023 289.2357837502695" stroke-opacity="1" stroke-linejoin="round" stroke-miterlimit="10" stroke-width="2"/><path fill="rgb(108,117,125)" stroke="none" paint-order="stroke fill markers" d=" M 241.4508675463617 288.7475203794274 L 250.5562510540936 292.1687030955541 L 247.82996712235584 282.8316866596926 Z" fill-opacity="1"/><g transform="translate(209.92237936684307,238.3528140879843) rotate(47.15785047009685,0,0)"><text fill="rgb(73,80,87)" stroke="none" font-family="Helvetica Neue, Helvetica, sans-serif" font-size="10px" font-style="normal" font-weight="normal" text-decoration="normal" x="0" y="5" text-anchor="middle" dominant-baseline="text-after-edge" fill-opacity="1">contributesTo</text><g transform="rotate(-47.15785047009685,0,0) translate(-209.92237936684307,-238.3528140879843)"><path fill="none" stroke="rgb(108,117,125)" paint-order="fill stroke markers" d=" M 16.462036703484394 352.0692683872371 L 38.138466795772906 475.32901543428716" stroke-opacity="1" stroke-linejoin="round" stroke-miterlimit="10" stroke-width="2"/><path fill="rgb(108,117,125)" stroke="none" paint-order="stroke fill markers" d=" M 33.040162365949854 471.4534778017971 L 38.8312743172687 479.26856080630137 L 41.60867355008084 469.9466214425437 Z" fill-opacity="1"/><g transform="translate(27.473453630002602,404.6840282537657) rotate(80.02596438798297,0,0)"><text fill="rgb(73,80,87)" stroke="none" font-family="Helvetica Neue, Helvetica, sans-serif" font-size="10px" font-style="normal" font-weight="normal" text-decoration="normal" x="0" y="5" text-anchor="middle" dominant-baseline="text-after-edge" fill-opacity="1">contributesTo</text><g transform="rotate(-80.02596438798297,0,0) translate(-27.473453630002602,-404.6840282537657)"><path fill="none" stroke="rgb(108,117,125)" paint-order="fill stroke markers" d=" M 158.3181531970962 178.00338475305688 L 164.35848066992924 48.4956563808349" stroke-opacity="1" stroke-linejoin="round" stroke-miterlimit="10" stroke-width="2"/><path fill="rgb(108,117,125)" stroke="none" paint-order="stroke fill markers" d=" M 168.4847838684114 53.39321923537754 L 164.54484076837673 44.5 L 159.79423124009548 52.98788602125427 Z" fill-opacity="1"/><g transform="translate(161.3849069581246,102.25060647173717) rotate(-87.32962156008841,0,0)"><text fill="rgb(73,80,87)" stroke="none" font-family="Helvetica Neue, Helvetica, sans-serif" font-size="10px" font-style="normal" font-weight="normal" text-decoration="normal" x="0" y="5" text-anchor="middle" dominant-baseline="text-after-edge" fill-opacity="1">memberOf</text><g transform="rotate(87.32962156008841,0,0) translate(-161.3849069581246,-102.25060647173717)"><path fill="none" stroke="rgb(108,117,125)" paint-order="fill stroke markers" d=" M 105.51582190033244 173.32362945409778 L 157.80535185219887 48.19072644598327" stroke-opacity="1" stroke-linejoin="round" stroke-miterlimit="10" stroke-width="2"/><path fill="rgb(108,117,125)" stroke="none" paint-order="stroke fill markers" d=" M 160.00687187857233 54.20452803678059 L 159.34760290209957 44.5 L 151.97954185855875 50.85013200324657 Z" fill-opacity="1"/><g transform="translate(132.04614963874081,99.83449633854471) rotate(-67.32131831381464,0,0)"><text fill="rgb(73,80,87)" stroke="none" font-family="Helvetica Neue, Helvetica, sans-serif" font-size="10px" font-style="normal" font-weight="normal" text-decoration="normal" x="0" y="5" text-anchor="middle" dominant-baseline="text-after-edge" fill-opacity="1">memberOf</text><g transform="rotate(67.32131831381464,0,0) translate(-132.04614963874081,-99.83449633854471)"><path fill="rgb(13,110,253)" stroke="none" paint-order="stroke fill markers" d=" M 157.6651837899222 178.00338475305688 L 172.1651837899222 178.00338475305688 L 172.1651837899222 178.00338475305688 A 7 7 0 0 1 179.1651837899222 185.00338475305688 L 179.1651837899222 199.00338475305688 L 179.1651837899222 199.00338475305688 A 7 7 0 0 1 172.1651837899222 206.00338475305688 L 143.1651837899222 206.00338475305688 L 143.1651837899222 206.00338475305688 A 7 7 0 0 1 136.1651837899222 199.00338475305688 L 136.1651837899222 185.00338475305688 L 136.1651837899222 185.00338475305688 A 7 7 0 0 1 143.1651837899222 178.00338475305688 L 157.6651837899222 178.00338475305688 Z" fill-opacity="1"/><text fill="rgb(255,255,255)" stroke="none" font-family="Helvetica Neue, Helvetica, sans-serif" font-size="12px" font-style="normal" font-weight="normal" text-decoration="normal" x="157.6651837899222" y="198.00338475305688" text-anchor="middle" dominant-baseline="text-after-edge" fill-opacity="1">Alice</text><path fill="rgb(13,110,253)" stroke="none" paint-order="stroke fill markers" d=" M 99.66561462688128 173.32362945409778 L 111.66561462688128 173.32362945409778 L 111.66561462688128 173.32362945409778 A 7 7 0 0 1 118.66561462688128 180.32362945409778 L 118.66561462688128 194.32362945409778 L 118.66561462688128 194.32362945409778 A 7 7 0 0 1 111.66561462688128 201.32362945409778 L 87.66561462688128 201.32362945409778 L 87.66561462688128 201.32362945409778 A 7 7 0 0 1 80.66561462688128 194.32362945409778 L 80.66561462688128 180.32362945409778 L 80.66561462688128 180.32362945409778 A 7 7 0 0 1 87.66561462688128 173.32362945409778 L 99.66561462688128 173.32362945409778 Z" fill-opacity="1"/><text fill="rgb(255,255,255)" stroke="none" font-family="Helvetica Neue, Helvetica, sans-serif" font-size="12px" font-style="normal" font-weight="normal" text-decoration="normal" x="99.66561462688128" y="193.32362945409778" text-anchor="middle" dominant-baseline="text-after-edge" fill-opacity="1">Bob</text><path fill="rgb(13,110,253)" stroke="none" paint-order="stroke fill markers" d=" M 17.20865316413807 217.57298327345654 L 32.70865316413807 217.57298327345654 L 32.70865316413807 217.57298327345654 A 7 7 0 0 1 39.70865316413807 224.57298327345654 L 39.70865316413807 238.57298327345654 L 39.70865316413807 238.57298327345654 A 7 7 0 0 1 32.70865316413807 245.57298327345654 L 1.7086531641380693 245.57298327345654 L 1.7086531641380698 245.57298327345654 A 7 7 0 0 1 -5.291346835861931 238.57298327345654 L -5.291346835861931 224.57298327345654 L -5.291346835861931 224.57298327345654 A 7 7 0 0 1 1.7086531641380698 217.57298327345654 L 17.20865316413807 217.57298327345654 Z" fill-opacity="1"/><text fill="rgb(255,255,255)" stroke="none" font-family="Helvetica Neue, Helvetica, sans-serif" font-size="12px" font-style="normal" font-weight="normal" text-decoration="normal" x="17.20865316413807" y="237.57298327345654" text-anchor="middle" dominant-baseline="text-after-edge" fill-opacity="1">Carol</text><path fill="rgb(13,110,253)" stroke="none" paint-order="stroke fill markers" d=" M 14 324.0692683872371 L 29.5 324.0692683872371 L 29.5 324.0692683872371 A 7 7 0 0 1 36.5 331.0692683872371 L 36.5 345.0692683872371 L 36.5 345.0692683872371 A 7 7 0 0 1 29.5 352.0692683872371 L -1.5000000000000009 352.0692683872371 L -1.5000000000000004 352.0692683872371 A 7 7 0 0 1 -8.5 345.0692683872371 L -8.5 331.0692683872371 L -8.5 331.0692683872371 A 7 7 0 0 1 -1.5000000000000004 324.0692683872371 L 14 324.0692683872371 Z" fill-opacity="1"/><text fill="rgb(255,255,255)" stroke="none" font-family="Helvetica Neue, Helvetica, sans-serif" font-size="12px" font-style="normal" font-weight="normal" text-decoration="normal" x="14" y="344.0692683872371" text-anchor="middle" dominant-baseline="text-after-edge" fill-opacity="1">Dave</text><path fill="rgb(13,110,253)" stroke="none" paint-order="stroke fill markers" d=" M 127.48500916202424 338.22644886370375 L 158.98500916202426 338.22644886370375 L 158.98500916202426 338.22644886370375 A 7 7 0 0 1 165.98500916202426 345.22644886370375 L 165.98500916202426 359.22644886370375 L 165.98500916202426 359.22644886370375 A 7 7 0 0 1 158.98500916202426 366.22644886370375 L 95.98500916202424 366.22644886370375 L 95.98500916202424 366.22644886370375 A 7 7 0 0 1 88.98500916202424 359.22644886370375 L 88.98500916202424 345.22644886370375 L 88.98500916202424 345.22644886370375 A 7 7 0 0 1 95.98500916202424 338.22644886370375 L 127.48500916202424 338.22644886370375 Z" fill-opacity="1"/><text fill="rgb(255,255,255)" stroke="none" font-family="Helvetica Neue, Helvetica, sans-serif" font-size="12px" font-style="normal" font-weight="normal" text-decoration="normal" x="127.48500916202424" y="358.22644886370375" text-anchor="middle" dominant-baseline="text-after-edge" fill-opacity="1">Acme Corp</text><path fill="rgb(13,110,253)" stroke="none" paint-order="stroke fill markers" d=" M 263.53953671841566 292.1687030955541 L 279.53953671841566 292.1687030955541 L 279.53953671841566 292.1687030955541 A 7 7 0 0 1 286.53953671841566 299.1687030955541 L 286.53953671841566 313.1687030955541 L 286.53953671841566 313.1687030955541 A 7 7 0 0 1 279.53953671841566 320.1687030955541 L 247.53953671841566 320.1687030955541 L 247.53953671841566 320.1687030955541 A 7 7 0 0 1 240.53953671841566 313.1687030955541 L 240.53953671841566 299.1687030955541 L 240.53953671841566 299.1687030955541 A 7 7 0 0 1 247.53953671841566 292.1687030955541 L 263.53953671841566 292.1687030955541 Z" fill-opacity="1"/><text fill="rgb(255,255,255)" stroke="none" font-family="Helvetica Neue, Helvetica, sans-serif" font-size="12px" font-style="normal" font-weight="normal" text-decoration="normal" x="263.53953671841566" y="312.1687030955541" text-anchor="middle" dominant-baseline="text-after-edge" fill-opacity="1">Orion</text><path fill="rgb(13,110,253)" stroke="none" paint-order="stroke fill markers" d=" M 41.293311020753094 479.26856080630137 L 55.793311020753094 479.26856080630137 L 55.793311020753094 479.26856080630137 A 7 7 0 0 1 62.793311020753094 486.26856080630137 L 62.793311020753094 500.26856080630137 L 62.793311020753094 500.26856080630137 A 7 7 0 0 1 55.793311020753094 507.26856080630137 L 26.793311020753094 507.26856080630137 L 26.793311020753094 507.26856080630137 A 7 7 0 0 1 19.793311020753094 500.26856080630137 L 19.793311020753094 486.26856080630137 L 19.793311020753094 486.26856080630137 A 7 7 0 0 1 26.793311020753094 479.26856080630137 L 41.293311020753094 479.26856080630137 Z" fill-opacity="1"/><text fill="rgb(255,255,255)" stroke="none" font-family="Helvetica Neue, Helvetica, sans-serif" font-size="12px" font-style="normal" font-weight="normal" text-decoration="normal" x="41.293311020753094" y="499.26856080630137" text-anchor="middle" dominant-baseline="text-after-edge" fill-opacity="1">Atlas</text><path fill="rgb(13,110,253)" stroke="none" paint-order="stroke fill markers" d=" M 165.19781017555073 16.5 L 188.69781017555073 16.5 L 188.69781017555073 16.5 A 7 7 0 0 1 195.69781017555073 23.5 L 195.69781017555073 37.5 L 195.69781017555073 37.5 A 7 7 0 0 1 188.69781017555073 44.5 L 141.69781017555073 44.5 L 141.69781017555073 44.5 A 7 7 0 0 1 134.69781017555073 37.5 L 134.69781017555073 23.5 L 134.69781017555073 23.5 A 7 7 0 0 1 141.69781017555073 16.5 L 165.19781017555073 16.5 Z" fill-opacity="1"/><text fill="rgb(255,255,255)" stroke="none" font-family="Helvetica Neue, Helvetica, sans-serif" font-size="12px" font-style="normal" font-weight="normal" text-decoration="normal" x="165.19781017555073" y="36.5" text-anchor="middle" dominant-baseline="text-after-edge" fill-opacity="1">Platform</text><g transform="scale(0.6134684852864007,0.6134684852864007) translate(-438.3872697726179,-35.98382843331595)"/></g></g></g></g></g></g></g></g></g></g></g></g></g></g></g></g></g></g></g></g></g></g></g></g></g></g></svg>