<svg xmlns="http://www.w3.org/2000/svg" viewBox="-10 -15 100 90" fill="none" stroke="#3B82F6" stroke-width="2">
    <g transform="scale(1.59) translate(-16.6,-8.6)">
        <g transform="rotate(-5)">
            <!-- Graph edges -->
            <line x1="20" y1="20" x2="40" y2="12"></line>
            <line x1="20" y1="20" x2="30" y2="40"></line>
            <line x1="40" y1="12" x2="60" y2="22"></line>
            <line x1="40" y1="12" x2="50" y2="36"></line>
            <line x1="30" y1="40" x2="50" y2="36"></line>
            <line x1="60" y1="22" x2="50" y2="36"></line>

            <!-- Graph nodes -->
            <circle cx="20" cy="20" r="4" fill="#3B82F6"></circle>
            <circle cx="40" cy="12" r="4" fill="#3B82F6"></circle>
            <circle cx="30" cy="40" r="4" fill="#3B82F6"></circle>
            <circle cx="50" cy="36" r="4" fill="#3B82F6"></circle>
            <circle cx="60" cy="22" r="4" fill="#3B82F6"></circle>
        </g>
        <!-- Eye -->
        <g transform="translate(24,24) scale(0.7)">
            <path d="M22 32c4-6 11-10 15-10s11 4 15 10c-4 6-11 10-15 10S26 38 22 32z" stroke="#3B82F6" fill="none"></path>
            <circle cx="37" cy="32" r="6" fill="#3B82F6"></circle>
        </g>
    </g>
</svg>
